<svg width="34" height="33" viewBox="0 0 34 33" fill="none" xmlns="http://www.w3.org/2000/svg">
<path d="M10.12 25.8399C11.6222 25.8399 12.84 24.6222 12.84 23.1199C12.84 21.6176 11.6222 20.3999 10.12 20.3999C8.61778 20.3999 7.39999 21.6176 7.39999 23.1199C7.39999 24.6222 8.61778 25.8399 10.12 25.8399Z" stroke="#363636" stroke-width="2.04" stroke-miterlimit="1.5" stroke-linecap="round" stroke-linejoin="round"/>
<path d="M23.72 25.8399C25.2223 25.8399 26.44 24.6222 26.44 23.1199C26.44 21.6176 25.2223 20.3999 23.72 20.3999C22.2177 20.3999 21 21.6176 21 23.1199C21 24.6222 22.2177 25.8399 23.72 25.8399Z" stroke="#363636" stroke-width="2.04" stroke-miterlimit="1.5" stroke-linecap="round" stroke-linejoin="round"/>
<path d="M19.64 23.1199V8.97591C19.64 8.52525 19.2747 8.15991 18.824 8.15991H4.13601C3.68534 8.15991 3.32001 8.52525 3.32001 8.97591V22.3039C3.32001 22.7546 3.68534 23.1199 4.13601 23.1199H6.92401" stroke="#363636" stroke-width="2.04" stroke-linecap="round"/>
<path d="M19.64 23.1201H12.9081" stroke="#363636" stroke-width="2.04" stroke-linecap="round"/>
<path d="M19.64 12.24H27.2698C27.5922 12.24 27.8845 12.4299 28.0154 12.7246L30.4497 18.2017C30.4961 18.3061 30.52 18.419 30.52 18.5331V22.304C30.52 22.7547 30.1547 23.12 29.704 23.12H27.12" stroke="#363636" stroke-width="2.04" stroke-linecap="round"/>
<path d="M19.64 23.1201H21" stroke="#363636" stroke-width="2.04" stroke-linecap="round"/>
</svg>
